<?xml version="1.0" standalone="no"?><!DOCTYPE svg PUBLIC "-//W3C//DTD SVG 1.1//EN" "http://www.w3.org/Graphics/SVG/1.1/DTD/svg11.dtd"><svg t="1582551106813" class="icon" viewBox="0 0 1024 1024" version="1.1" xmlns="http://www.w3.org/2000/svg" p-id="2324" xmlns:xlink="http://www.w3.org/1999/xlink" width="200" height="200"><defs><style type="text/css"></style></defs><path d="M916 943.3H108.5c-15.6 0-28.4-12.8-28.4-28.4V108.3c0-15.6 12.8-28.4 28.4-28.4H916c15.6 0 28.4 12.8 28.4 28.4v806.6c0.1 15.6-12.7 28.4-28.4 28.4z" fill="#C2C6CA" p-id="2325"></path><path d="M81.1 867.8V156.4c0-41.6 33.9-75.5 75.5-75.5H868c19.4 0 37 7.3 50.4 19.3l27.1-27.1c-20.3-19-47.6-30.6-77.5-30.6H156.6c-62.8 0-113.9 51.1-113.9 113.9v711.4c0 29.9 11.6 57.2 30.6 77.5l27.1-27.1c-12-13.3-19.3-31-19.3-50.4z" fill="#87898B" p-id="2326"></path><path d="M945.5 73.1l-27.1 27.1c15.4 13.8 25.1 33.9 25.1 56.2v711.4c0 41.6-33.9 75.5-75.5 75.5H156.6c-22.3 0-42.3-9.7-56.2-25.1l-27.1 27.1c20.8 22.3 50.4 36.3 83.3 36.3H868c62.8 0 113.9-51.1 113.9-113.9V156.4c0-32.8-14-62.5-36.4-83.3z" fill="#6A6C6D" p-id="2327"></path><path d="M368 818.7s-102.3 24.1-70.5 67.3c20.5 27.8 133.5 30.4 180.1 5.1 12.3-6.7 34.7-22.7 34.7-60.6S368 818.7 368 818.7z" fill="#FFCB4D" p-id="2328"></path><path d="M656.6 818.7s102.3 24.1 70.5 67.3c-20.5 27.8-133.5 30.4-180.1 5.1-12.3-6.7-34.7-22.7-34.7-60.6s144.3-11.8 144.3-11.8z" fill="#A97900" p-id="2329"></path><path d="M512.3 161s230.1-31.9 230.1 319.9c0 0 102.6 121.7 75.7 254-18.8 92.1-34.4-47.7-75.7-47.7 0 0-20.1 166.3-230.1 173.2V161z" fill="" p-id="2330"></path><path d="M376.3 417c14.5 20.2 85.5 57.3 136 58.1V369.8c-75.2 0.1-152 25-136 47.2z" fill="#FFCB4D" p-id="2331"></path><path d="M512.4 369.8c-0.1 0-0.1 0 0 0l-0.1 105.3h0.1c45.4 0.7 124-40.1 136.1-58.1 15.2-22.6-61-47.2-136.1-47.2z" fill="#A97900" p-id="2332"></path><path d="M296.8 344.4h49.4c7 0 12.7 5.7 12.7 12.7 0 7-5.7 12.7-12.7 12.7h-51.3c-1.2 0-2.3-0.2-3.4-0.5-1.6 8.9-3.1 18.1-4.3 27.8 0.3 0 0.6-0.1 0.9-0.1h51.3c7 0 12.7 5.7 12.7 12.7 0 7-5.7 12.7-12.7 12.7h-51.3c-1.2 0-2.4-0.2-3.5-0.6-1.5 18.4-2.4 38-2.4 59 0 0-102.6 121.7-75.7 254 18.8 92.1 34.4-47.7 75.7-47.7 0 0 20.1 166.3 230.1 173.2V161s-164.8-22.9-215.5 183.4z" fill="#2D2D2D" p-id="2333"></path><path d="M346.2 369.8c7 0 12.7-5.7 12.7-12.7 0-7-5.7-12.7-12.7-12.7h-49.4c-2 8-3.7 16.3-5.3 25 1.1 0.3 2.2 0.5 3.4 0.5h51.3z" fill="#FFFFFF" p-id="2334"></path><path d="M678.4 369.8c-7 0-12.7-5.7-12.7-12.7 0-7 5.7-12.7 12.7-12.7h49.4c2 8 3.7 16.3 5.3 25-1.1 0.3-2.2 0.5-3.4 0.5h-51.3z" fill="#9D9D9D" p-id="2335"></path><path d="M339.3 422.5c7 0 12.7-5.7 12.7-12.7 0-7-5.7-12.7-12.7-12.7H288c-0.3 0-0.6 0.1-0.9 0.1-1 8-1.9 16.3-2.6 24.8 1.1 0.3 2.3 0.6 3.5 0.6h51.3z" fill="#FFFFFF" p-id="2336"></path><path d="M685.2 422.5c-7 0-12.7-5.7-12.7-12.7 0-7 5.7-12.7 12.7-12.7h51.3c0.3 0 0.6 0.1 0.9 0.1 1 8 1.9 16.3 2.6 24.8-1.1 0.3-2.3 0.6-3.5 0.6h-51.3zM698.9 524s-122.8-5.1-187.7-5.1h-0.2v340.4h0.2c103.9 0 188-91.4 188-201.1 0-41.1-0.3-134.2-0.3-134.2z" fill="#9D9D9D" p-id="2337"></path><path d="M322.8 524s0.3 95.6 0.3 134.2c0 109.6 84.1 201 187.9 201.1V518.9c-67.3 0-188.2 5.1-188.2 5.1z" fill="#FFFFFF" p-id="2338"></path><path d="M493.8 307.4c0 36.4-19.9 71-44.5 71s-44.5-34.6-44.5-71 19.9-60.8 44.5-60.8 44.5 24.4 44.5 60.8z" fill="#FFFFFF" p-id="2339"></path><path d="M453.9 320.9m-21.1 0a21.1 21.1 0 1 0 42.2 0 21.1 21.1 0 1 0-42.2 0Z" fill="#2D2D2D" p-id="2340"></path><path d="M530.8 307.4c0 36.4 19.9 71 44.5 71s44.5-34.6 44.5-71-19.9-60.8-44.5-60.8-44.5 24.4-44.5 60.8z" fill="#FFFFFF" p-id="2341"></path><path d="M570.7 307.5c10.3 0 18.9 7.4 20.7 17.2 0.2-1.2 0.4-2.5 0.4-3.8 0-11.6-9.4-21.1-21.1-21.1-11.6 0-21.1 9.4-21.1 21.1 0 1.3 0.1 2.6 0.4 3.8 1.8-9.8 10.4-17.2 20.7-17.2z" fill="" p-id="2342"></path><path d="M512.2 369.8l0.1 105.3h-0.1c-45.4 0.7-124-40.1-136.1-58.1-15.2-22.6 60.9-47.2 136.1-47.2z" fill="#FFCB4D" p-id="2343"></path><path d="M407.5 663.5l26.4-10.3v-13.5l-38.2 16.2zM375.8 643.3l58.1-28.3v-13.5l-68 35.5zM390.9 652.9l43-18.8v-13.5L380.1 646zM362 634.5l71.9-38.6v-13.5l-81 46.3zM428.6 564.8l-88.5 55.8 9.2 5.8 84.6-49.7v-32l-21.7 14.5zM407.1 557.5l26.8-18.4v-13.5l-38.7 27.8zM433.9 734.4v-1.7l-3.4 0.6zM428.6 676.8l-88 29.5 17 5.1 76.3-22.5v-30.1l-21.2 7.9zM390.5 551.8l43.4-31.8v-13.5l-54.2 41.7zM385.6 719.8l48.3-11.8v-13.5l-68.6 19.2zM419.3 730l14.6-2.9v-13.5l-39 9zM361.6 542l28.2-23.4-20.9 6.2-16.3 14.1z" fill="#76E800" p-id="2344"></path><path d="M340.1 620.6v-85.9l8.9 3 11.9-10.5-21 6.2v172.7h0.2zM375.4 546.7l49.2-38.5-25.3 7.5-33.7 27.7z" fill="#76E800" p-id="2345"></path><path d="M352.9 628.7l81-46.3v-5.7l-84.6 49.7zM365.9 637l68-35.5v-5.6L362 634.5zM380.1 646l53.8-25.4V615l-58.1 28.3zM395.7 655.9l38.2-16.2v-5.6l-43 18.8zM412.7 666.7l21.2-7.9v-5.6l-26.4 10.3zM365.3 713.7l68.6-19.2v-5.6l-76.3 22.5zM394.9 722.6l39-9V708l-48.3 11.8zM430.5 733.3l3.4-0.6v-5.6l-14.6 2.9zM352.6 538.9l16.3-14.1-8 2.4-11.9 10.5zM365.6 543.4l33.7-27.7-9.5 2.9-28.2 23.4zM379.7 548.2l54.2-41.7v-1.1l-9.3 2.8-49.2 38.5zM395.2 553.4l38.7-27.8V520l-43.4 31.8zM412.2 559.2l21.7-14.5v-5.6l-26.8 18.4z" fill="#6486E7" p-id="2346"></path><path d="M412.2 559.2l-32.3 21.7-2.1-3.4 29.3-20-11.9-4.1-23.8 17.2-2.1-3.2 21.2-15.6-10.8-3.6-16.4 12.7-2-3.1 14.1-11.1-9.8-3.3-10.1 8.2-1.8-2.9 7.9-6.7-9-3.1-4.4 3.9-1.8-2.9 2.6-2.2-8.9-3v85.9l88.5-55.8z" fill="#E95B53" p-id="2347"></path><path d="M348.2 542.8l4.4-3.9-3.6-1.2-2.6 2.2zM355.5 551.6l10.1-8.2-4-1.4-7.9 6.7zM363.3 560.9l16.4-12.7-4.3-1.5-14.1 11.1zM371.4 570.6l23.8-17.2-4.7-1.6-21.2 15.6zM379.9 580.9l32.3-21.7-5.1-1.7-29.3 20zM340.1 706.1v0.4l0.5-0.2z" fill="#E95B53" p-id="2348"></path><path d="M428.6 676.8l-15.9-10.1-31.3 11.7-2.2-4 28.3-10.9-11.8-7.6-22.9 9.7-2.1-3.8 20.2-8.9-10.8-6.9-15.5 7.4-2-3.7 13.2-6.4-9.9-6.3-9.1 4.8-1.9-3.5 7.1-3.8-9.1-5.8-3.5 2-1.8-3.3 1.7-1-9.2-5.8v85.5l0.5 0.2z" fill="#E95B53" p-id="2349"></path><path d="M349.4 630.7l3.5-2-3.6-2.3-1.7 1zM356.8 641.8l9.1-4.8-3.9-2.5-7.1 3.8zM364.6 653.4l15.5-7.4-4.3-2.7-13.2 6.4zM372.8 665.6l22.9-9.7-4.8-3-20.2 8.9zM381.4 678.4l31.3-11.7-5.2-3.2-28.3 10.9zM374.1 206.1s73.7-21.2 138.1-21.2v22.4s-57.6-1.1-165.2 27.3c0.1-0.1 14.6-18.6 27.1-28.5z" fill="#E95B53" p-id="2350"></path><path d="M650.4 206.1s-73.7-21.2-138.1-21.2v22.4s57.6-1.1 165.2 27.3c-0.1-0.1-14.5-18.6-27.1-28.5z" fill="#9A3A3A" p-id="2351"></path><path d="M701.9 130.4c-1.6-18.2-8.8-26.8-8.8-26.8h-0.1L654.1 213h0.1c13.7 4.9 29.8-4.9 40.2-34.2 4-11.5 8.6-36.5 7.5-48.4z" fill="#9D9D9D" p-id="2352"></path><path d="M669.1 119c-8.3 8.5-20.5 30.8-24.6 42.2-10.4 29.2-4.2 46.9 9.5 51.8l38.9-109.4c-1.2 0.3-11.7 3-23.8 15.4z" fill="#FFFFFF" p-id="2353"></path><path d="M685.2 125.8s-2.6-8.9-8.6-10.2c0 0 10.8-11.3 16.4-11.6l-7.8 21.8z" fill="#2B2626" p-id="2354"></path><path d="M685.1 125.8s7.6-5.3 13.1-2.5c0 0-1.3-15.6-5.4-19.3l-7.7 21.8z" fill="" p-id="2355"></path><path d="M768.8 148.2c8-23.3 4.7-36 4.7-36h-0.2l-101.5 126 0.1 0.1c12.4 10 35.3 2.2 62.4-31.4 10.8-13.4 29.3-43.5 34.5-58.7z" fill="#9D9D9D" p-id="2356"></path><path d="M739.1 124.7c-13.7 8.3-39 32.7-49.7 45.9-27.1 33.6-29.9 57.5-17.5 67.6l101.5-126c-1.5 0-14.5 0.3-34.3 12.5z" fill="#FFFFFF" p-id="2357"></path><path d="M753 137.7s1-12.6-5.9-16.8c0 0 19.1-10.2 26.1-8.2l-20.2 25z" fill="#2B2626" p-id="2358"></path><path d="M752.9 137.7s12.1-3.7 17.7 2.2c0 0 5.9-20.8 2.5-27.3l-20.2 25.1z" fill="" p-id="2359"></path><path d="M645.956837 231.313434a30.2 20.4 68.178 1 0 37.876401-15.166353 30.2 20.4 68.178 1 0-37.876401 15.166353Z" fill="#29AAE1" p-id="2360"></path><path d="M653.383582 228.339639a18.3 12.4 68.178 1 0 23.022911-9.218763 18.3 12.4 68.178 1 0-23.022911 9.218763Z" fill="#FFFF00" p-id="2361"></path><path d="M516.5 716.3h-10.9c-4.2 0-7.7 3.5-7.7 7.7v0.2c4 1.2 8.5 1.9 13.3 1.9 4.6 0 9-0.7 13-1.8v-0.3c0-4.3-3.5-7.7-7.7-7.7z" fill="#357C7C" p-id="2362"></path><path d="M505.6 716.3h5.5v-31.6c-17.5 0-31.6 9.3-31.6 20.7 0 8.3 7.6 15.5 18.4 18.8v-0.2c0-4.3 3.4-7.7 7.7-7.7z" fill="#59CCD2" p-id="2363"></path><path d="M499.6 702.2m-6.7 0a6.7 6.7 0 1 0 13.4 0 6.7 6.7 0 1 0-13.4 0Z" fill="#2D2D2D" p-id="2364"></path><path d="M511.1 684.6h-0.1v31.6h5.5c4.2 0 7.7 3.5 7.7 7.7v0.3c11-3.2 18.7-10.5 18.7-18.9 0-11.4-14.2-20.7-31.8-20.7z" fill="#357C7C" p-id="2365"></path><path d="M520.8 702.2m-6.7 0a6.7 6.7 0 1 0 13.4 0 6.7 6.7 0 1 0-13.4 0Z" fill="" p-id="2366"></path><path d="M511 716.3h-5.5c-4.2 0-7.7 3.5-7.7 7.7v0.2c4 1.2 8.4 1.9 13.1 1.9v-9.8z" fill="#59CCD2" p-id="2367"></path><path d="M497.9 724.2v13c0 4.2 3.5 7.7 7.7 7.7h5.5v-18.8c-4.8 0-9.2-0.7-13.2-1.9z" fill="#59CCD2" p-id="2368"></path><path d="M511 726.1v18.8h5.5c4.2 0 7.7-3.5 7.7-7.7v-12.9c-4 1.2-8.4 1.8-13 1.8h-0.2z" fill="#357C7C" p-id="2369"></path><path d="M710.9 490.8c10 13.7 20.3 27.4 30.8 40.8-1 0.9-1.9 1.9-2.9 2.8-11.1-14.2-21.8-28.5-32.2-42.9l-10.2 1.8c11.7 16.6 23.9 33 36.4 49.2-1 0.9-1.9 1.9-2.9 2.8-13-16.9-25.6-34-37.7-51.3-3.4 0.6-6.8 1.1-10.2 1.6 13.4 19.5 27.3 38.7 41.8 57.7-1 0.9-2 1.9-3 2.8-15-19.7-29.3-39.6-43.1-59.8l-10.2 1.5c15 22.4 30.7 44.5 47.1 66.3-1 0.9-2 1.8-3 2.8-16.9-22.5-33-45.3-48.3-68.5-3.4 0.5-6.8 0.9-10.2 1.4 16.5 25.4 33.9 50.4 52.2 75-1 0.9-2 1.8-3.1 2.7-18.8-25.3-36.6-51.1-53.4-77.2-7.6 0.9-15.2 1.8-22.7 2.6 8.9 14.5 18.1 28.8 27.5 43.1-1 0.9-2 1.7-3.1 2.6-9.9-15-19.5-30.1-28.7-45.3-3.4 0.3-6.8 0.7-10.2 1 10.4 17.4 21.2 34.7 32.4 51.9-1 0.9-2.1 1.7-3.1 2.6-11.7-17.9-22.8-35.9-33.6-54.1-3.4 0.3-6.8 0.6-10.2 0.8 11.8 20.4 24.2 40.7 37.2 60.7-1.1 0.9-2.1 1.7-3.2 2.6-13.4-20.8-26.1-41.8-38.3-63-3.4 0.3-6.8 0.5-10.3 0.7 13.2 23.5 27.1 46.8 41.8 69.7-1.1 0.8-2.1 1.7-3.2 2.5-15.1-23.7-29.3-47.7-42.8-72-3.4 0.2-6.8 0.4-10.3 0.6 14.4 26.6 29.8 52.9 46.2 78.8-1.1 0.8-2.2 1.7-3.3 2.5-16.7-26.7-32.5-53.8-47.2-81.1-8.2 0.4-16.4 0.7-24.5 0.9 7.7 15.1 15.7 30.2 24 45.1l-3.3 2.4c-8.7-15.7-17-31.5-25.1-47.4-3.4 0.1-6.8 0.1-10.3 0.2 9 18.2 18.4 36.3 28.2 54.3-1.1 0.8-2.2 1.6-3.3 2.3-10.2-18.7-19.9-37.6-29.2-56.5h-9.5v1.5c10 20.8 20.5 41.5 31.5 62-1.1 0.8-2.2 1.5-3.3 2.3-9.8-18.3-19.2-36.8-28.2-55.3v21.5c6.7 13.6 13.7 27.2 20.9 40.8-1.1 0.8-2.3 1.5-3.4 2.3-6-11.3-11.8-22.7-17.5-34.1v21.5c3.3 6.5 6.6 13 10 19.5-1.1 0.7-2.3 1.5-3.4 2.2-2.2-4.2-4.4-8.5-6.6-12.8v22.7c94.3 0 188.5-11.1 280.8-33.2-1.5-6.4-3.1-12.9-4.6-19.3-18.1-21.1-35.5-42.5-52.1-64.3-7.8 1.7-15.8 3.2-23.9 4.7z" fill="#396B00" p-id="2370"></path><path d="M511 509h-0.7c0.2 0.5 0.5 1 0.7 1.5V509z" fill="#76E800" p-id="2371"></path><path d="M739.3 485.2c14.7 19.1 30 37.9 45.8 56.5-1.7-7-3.3-13.9-5-20.9-10.5-12.5-20.7-25-30.7-37.8-3.4 0.8-6.7 1.5-10.1 2.2zM769.9 478.3c-0.7 0.2-1.3 0.3-2 0.5 1 1.2 2 2.5 3 3.7-0.4-1.4-0.7-2.8-1-4.2zM753.6 482.1c8 10.1 16.1 20.1 24.4 30-1.7-7-3.3-13.9-5-20.9l-9.3-11.4c-3.4 0.8-6.7 1.6-10.1 2.3z" fill="#396B00" p-id="2372"></path><path d="M517.6 593c1.1-0.7 2.3-1.5 3.4-2.2-3.4-6.5-6.7-13-10-19.5v8.9c2.2 4.3 4.4 8.6 6.6 12.8zM528.5 583.9c1.1-0.8 2.3-1.5 3.4-2.3-7.2-13.5-14.1-27.1-20.9-40.8v8.9c5.7 11.6 11.5 22.9 17.5 34.2zM539.2 574.7c1.1-0.8 2.2-1.5 3.3-2.3-11.1-20.5-21.6-41.2-31.5-62v8.9c9 18.7 18.4 37.1 28.2 55.4zM553.1 563.1c-9.8-18-19.3-36.1-28.2-54.3h-4.3c9.3 19 19 37.8 29.2 56.5 1.1-0.6 2.2-1.4 3.3-2.2zM563.4 553.7c-8.3-15-16.3-30-24-45.1-1.4 0-2.8 0.1-4.3 0.1 8 15.9 16.4 31.7 25.1 47.4 1.1-0.8 2.1-1.6 3.2-2.4zM614.4 586.3c-16.3-26-31.7-52.3-46.2-78.8-1.4 0.1-2.8 0.1-4.3 0.2 14.7 27.4 30.4 54.4 47.2 81.1 1.1-0.8 2.2-1.6 3.3-2.5zM624.5 576.4c-14.7-23-28.6-46.3-41.8-69.7-1.4 0.1-2.8 0.2-4.3 0.3 13.5 24.3 27.7 48.3 42.8 72 1.1-0.9 2.2-1.8 3.3-2.6zM634.4 566.4c-13-20-25.4-40.3-37.2-60.7-1.4 0.1-2.8 0.2-4.3 0.3 12.1 21.2 24.9 42.2 38.3 63 1.1-0.9 2.2-1.8 3.2-2.6zM644.2 556.3c-11.2-17.1-22-34.4-32.4-51.9-1.4 0.1-2.8 0.3-4.3 0.4 10.7 18.2 21.9 36.2 33.6 54.1 1-0.9 2.1-1.8 3.1-2.6zM653.8 546.1c-9.5-14.3-18.7-28.6-27.5-43.1-1.4 0.1-2.8 0.3-4.3 0.4 9.3 15.2 18.8 30.3 28.7 45.3 1-0.9 2.1-1.8 3.1-2.6zM705.4 574.9c-18.3-24.6-35.7-49.7-52.2-75-1.4 0.2-2.8 0.4-4.2 0.5 16.8 26.1 34.6 51.9 53.4 77.2l3-2.7zM714.8 564.2c-16.4-21.8-32.1-43.9-47.1-66.3l-4.2 0.6c15.3 23.1 31.4 46 48.3 68.5 0.9-1 2-1.9 3-2.8zM723.9 553.4c-14.5-19-28.4-38.2-41.8-57.7-1.4 0.2-2.8 0.4-4.2 0.7 13.8 20.2 28.1 40.1 43.1 59.8 0.9-0.9 1.9-1.9 2.9-2.8zM732.9 542.6c-12.5-16.2-24.7-32.6-36.4-49.2-1.4 0.2-2.8 0.5-4.2 0.7 12.1 17.3 24.7 34.4 37.7 51.3 1-1 1.9-1.9 2.9-2.8zM741.7 531.6c-10.6-13.5-20.9-27.1-30.8-40.8-1.4 0.3-2.8 0.5-4.2 0.8 10.4 14.4 21.2 28.7 32.2 42.9 0.9-1 1.9-1.9 2.8-2.9zM735.1 486.1c16.6 21.8 34 43.2 52.1 64.3l-2.1-8.7c-15.8-18.5-31.1-37.4-45.8-56.5l-4.2 0.9zM749.4 483.1c10 12.7 20.2 25.3 30.7 37.8l-2.1-8.7c-8.3-9.9-16.4-19.9-24.4-30-1.4 0.2-2.8 0.5-4.2 0.9zM767.9 478.8c-1.4 0.3-2.8 0.7-4.2 1l9.3 11.4-2.1-8.7c-1-1.2-2-2.4-3-3.7z" fill="#2E4DBB" p-id="2373"></path><path d="M477 508.5c-8.2-0.3-16.4-0.6-24.5-1 6.5 15.7 13.3 31.3 20.4 46.9-1.1 0.7-2.3 1.4-3.4 2.1-7.4-16.3-14.5-32.7-21.3-49.2-3.4-0.2-6.8-0.4-10.3-0.6 7.5 18.8 15.5 37.6 23.9 56.3-1.2 0.7-2.3 1.4-3.5 2.1-8.7-19.5-16.9-39-24.7-58.6-3.4-0.2-6.8-0.5-10.2-0.8 8.5 22 17.5 44 27.2 65.8-1.2 0.7-2.3 1.4-3.5 2-10-22.6-19.3-45.3-27.9-68.2l-10.2-0.9c9.3 25.3 19.4 50.4 30.3 75.4-1.2 0.7-2.4 1.3-3.6 2-11.2-25.8-21.5-51.7-31-77.8-3.4-0.3-6.8-0.7-10.2-1 10.1 28.5 21.2 56.9 33.3 85.1-1.2 0.7-2.4 1.3-3.6 2-12.3-29-23.7-58.2-33.9-87.5-7.6-0.8-15.2-1.7-22.7-2.7 5.3 16.1 10.9 32.2 16.8 48.3l-3.6 1.8c-6.2-16.9-12-33.8-17.5-50.7-3.4-0.5-6.8-0.9-10.2-1.4 6.1 19.4 12.6 38.7 19.5 58l-3.6 1.8c-7.2-20.1-13.9-40.2-20.2-60.4-3.4-0.5-6.8-1-10.2-1.6 6.8 22.6 14.1 45.2 22.1 67.7-1.2 0.6-2.4 1.2-3.7 1.7-8.2-23.3-15.8-46.7-22.7-70.1-3.4-0.5-6.8-1.1-10.2-1.7 7.4 25.9 15.6 51.8 24.5 77.5-1.2 0.6-2.5 1.1-3.7 1.7-9.2-26.6-17.5-53.2-25-80-3.4-0.6-6.8-1.2-10.1-1.8 7.9 29.2 16.8 58.4 26.7 87.4-1.3 0.6-2.5 1.1-3.8 1.7-10.1-29.9-19.2-59.8-27.2-89.9-8-1.5-16-3.1-24-4.8 4.2 17 8.7 34.1 13.5 51.1-1.2 0.5-2.5 1-3.7 1.5-5-17.8-9.7-35.7-14-53.5-3.4-0.7-6.7-1.5-10.1-2.2 4.7 20.3 9.8 40.7 15.5 61-1.3 0.5-2.5 1-3.8 1.5-5.8-21.1-11.1-42.3-15.9-63.4-3.4-0.8-6.7-1.6-10.1-2.4 5.1 23.6 10.9 47.3 17.3 70.9-1.3 0.5-2.5 1-3.8 1.5-5.9-21.8-11.2-43.7-16-65.5-1.7 7-3.3 13.9-5 20.9 3.8 16.5 7.8 33.1 12.2 49.6-1.3 0.5-2.6 0.9-3.9 1.4-3.7-14.1-7.2-28.2-10.4-42.3-1.7 7-3.3 13.9-5 20.9 2.1 8.8 4.3 17.6 6.5 26.4-1.3 0.5-2.6 0.9-3.9 1.4-1.6-6.4-3.2-12.7-4.7-19.1l-6 25.2c92.3 21.9 186.6 33 280.8 33v-22.7c-12.1-23.8-23.4-47.7-34-71.8zM511 549.8c-6.8-13.6-13.3-27.3-19.5-41-3.4-0.1-6.8-0.1-10.3-0.2 9.4 21 19.3 42 29.8 62.8v-21.6zM511 519.4c-1.7-3.5-3.3-7-5-10.5-3.4 0-6.8 0-10.3-0.1 4.9 10.7 10 21.4 15.3 32v-21.4z" fill="#76E800" p-id="2374"></path><path d="M336.5 578c-9.9-29-18.8-58.2-26.7-87.4-1.4-0.3-2.8-0.5-4.2-0.8 8 30 17.1 60 27.2 89.9 1.2-0.6 2.4-1.2 3.7-1.7zM348.6 570.6c-8.9-25.8-17.1-51.6-24.5-77.5-1.4-0.2-2.8-0.5-4.2-0.7 7.5 26.7 15.9 53.4 25 80 1.3-0.6 2.5-1.2 3.7-1.8zM360.6 563.2c-8-22.5-15.3-45.1-22.1-67.7-1.4-0.2-2.8-0.4-4.2-0.7 6.9 23.4 14.5 46.8 22.7 70.1 1.2-0.5 2.4-1.1 3.6-1.7zM372.5 555.6c-7-19.3-13.5-38.6-19.5-58l-4.2-0.6c6.2 20.2 13 40.3 20.2 60.4 1.1-0.6 2.3-1.2 3.5-1.8zM384.2 547.9c-5.9-16.1-11.5-32.2-16.8-48.3l-4.2-0.6c5.5 16.9 11.3 33.8 17.5 50.7 1.1-0.5 2.3-1.2 3.5-1.8zM427.7 587.9c-12.1-28.2-23.2-56.6-33.3-85.1-1.4-0.2-2.8-0.3-4.3-0.5 10.3 29.3 21.6 58.5 33.9 87.5 1.3-0.6 2.5-1.2 3.7-1.9zM439.2 579.7c-10.9-25-21-50.2-30.3-75.4-1.4-0.1-2.8-0.3-4.3-0.4 9.5 26.1 19.9 52 31 77.8 1.2-0.7 2.4-1.4 3.6-2zM450.6 571.3c-9.7-21.8-18.7-43.8-27.2-65.8-1.4-0.1-2.8-0.2-4.3-0.3 8.7 22.8 18 45.6 27.9 68.2l3.6-2.1zM461.8 562.9c-8.4-18.7-16.4-37.5-23.9-56.3-1.4-0.1-2.8-0.2-4.3-0.3 7.8 19.6 16 39.2 24.7 58.6 1.2-0.7 2.3-1.4 3.5-2zM472.8 554.3c-7.1-15.6-13.9-31.2-20.4-46.9-1.4-0.1-2.8-0.2-4.3-0.2 6.8 16.5 13.8 32.9 21.3 49.2 1.2-0.7 2.3-1.4 3.4-2.1zM511 571.3c-10.5-20.8-20.4-41.7-29.8-62.8-1.4 0-2.8-0.1-4.3-0.1 10.6 24.1 22 48 34.1 71.8v-8.9zM511 540.9c-5.2-10.6-10.3-21.3-15.3-32-1.4 0-2.8 0-4.3-0.1 6.3 13.7 12.8 27.4 19.5 41 0.1-2.9 0.1-5.9 0.1-8.9zM511 510.5c-0.2-0.5-0.5-1-0.7-1.5H506c1.6 3.5 3.3 7 5 10.5v-9zM244.9 562.3c-2.3-8.8-4.4-17.6-6.5-26.4l-2.1 8.7c1.5 6.4 3.1 12.7 4.7 19.1 1.3-0.5 2.6-1 3.9-1.4zM257.7 555.9c-4.4-16.5-8.4-33.1-12.2-49.6l-2.1 8.7c3.2 14.1 6.7 28.2 10.4 42.3 1.3-0.4 2.6-0.9 3.9-1.4zM270.3 549.4c-6.4-23.6-12.2-47.3-17.3-70.9-0.3-0.1-0.5-0.1-0.8-0.2-0.6 2.4-1.1 4.7-1.7 7.1 4.8 21.8 10.1 43.7 16 65.5 1.2-0.5 2.5-1 3.8-1.5zM282.7 542.8c-5.6-20.3-10.8-40.6-15.5-61-1.4-0.3-2.8-0.6-4.2-1 4.8 21.2 10.1 42.3 15.9 63.4 1.3-0.4 2.5-0.9 3.8-1.4zM295 536.1c-4.8-17-9.3-34.1-13.5-51.1l-4.2-0.9c4.3 17.9 8.9 35.7 14 53.5 1.2-0.5 2.5-1 3.7-1.5z" fill="#6486E7" p-id="2375"></path><path d="M231.7 569.9c22.2-25.4 43.4-51.4 63.5-77.9 8.5 32.1 18.1 64.2 28.9 96.2-30.9-4.9-61.8-11-92.4-18.3zM324.1 588.1c20.1-27.1 39.1-54.7 57-82.7 10.9 31.4 23 62.6 36.2 93.6-31.1-2.3-62.2-6-93.2-10.9zM417.4 599.1c17.9-28.6 34.7-57.6 50.3-86.9 13.3 30.4 27.7 60.6 43.4 90.5-31.3 0-62.5-1.2-93.7-3.6z" fill="#E95B53" p-id="2376"></path><path d="M511.1 602.7c15.6-29.9 30.1-60.1 43.4-90.5 15.6 29.3 32.4 58.3 50.3 86.9-31.2 2.4-62.5 3.6-93.7 3.6z" fill="#9A3A3A" p-id="2377"></path><path d="M604.7 599.1c13.3-31 25.3-62.2 36.2-93.6 17.9 28 36.9 55.6 57 82.7-30.9 4.8-62 8.4-93.2 10.9zM698 588.1c10.8-32 20.5-64 28.9-96.2 20.1 26.5 41.2 52.5 63.5 77.9-30.6 7.4-61.4 13.4-92.4 18.3z" fill="#9A3A3A" p-id="2378"></path></svg>